<svg width="653" height="695" viewBox="0 0 653 695" fill="none" xmlns="http://www.w3.org/2000/svg">
<path fill-rule="evenodd" clip-rule="evenodd" d="M183.175 338.237C166.775 326.35 145.05 328.687 133.3 343.025C157.899 351.305 179.371 366.922 194.825 387.775C204.375 371.837 199.563 350.175 183.175 338.237Z" fill="#0E1428"/>
<path fill-rule="evenodd" clip-rule="evenodd" d="M45.55 360.336C55.9752 352.827 67.4818 346.947 79.675 342.898C67.9125 328.698 46.175 326.398 29.7875 338.173C13.4 349.998 8.57503 371.448 18.1375 387.236C25.8622 376.934 35.1048 367.865 45.55 360.336Z" fill="#0E1428"/>
<path fill-rule="evenodd" clip-rule="evenodd" d="M186.55 437.912C186.55 435.437 186.4 433 186.2 430.587C182.8 391.337 152.475 360.012 114.138 356.012C112.438 355.812 110.725 355.8 108.988 355.737C107.963 355.687 106.938 355.562 105.888 355.562H105.838C61.2376 355.562 25.1001 392.425 25.1001 437.912C25.1001 438.275 25.1501 438.65 25.1626 439.012C25.2769 449.986 27.5776 460.828 31.9302 470.902C36.2829 480.977 42.6001 490.083 50.5126 497.687C47.8979 499.046 45.7069 501.098 44.1792 503.617C42.6515 506.137 41.8458 509.028 41.8501 511.975C41.8501 520.837 48.9001 528.025 57.6001 528.025C65.9251 528.025 72.6501 521.437 73.2251 513.1C81.8376 516.987 91.2251 519.437 101.113 520.025C102.688 520.125 104.25 520.275 105.838 520.275C107.65 520.275 109.4 520.112 111.213 520C120.985 519.328 130.548 516.844 139.413 512.675C139.775 521.225 146.613 528.037 155.075 528.037C163.775 528.037 170.813 520.85 170.813 511.987C170.813 505.45 167 499.862 161.525 497.35C169.464 489.624 175.77 480.381 180.069 470.171C184.368 459.96 186.572 448.991 186.55 437.912ZM106.588 496.425C74.5501 496.425 48.5001 469.975 48.5001 437.475C48.5001 404.975 74.5501 378.55 106.588 378.55C138.613 378.55 164.675 404.975 164.675 437.475C164.675 469.975 138.613 496.425 106.588 496.425Z" fill="#0E1428"/>
<path fill-rule="evenodd" clip-rule="evenodd" d="M100 392.5H112.5V442.5H100V392.5Z" fill="#0E1428"/>
<path fill-rule="evenodd" clip-rule="evenodd" d="M100 430H137.5V442.5H100V430Z" fill="#0E1428"/>
<path d="M306.5 50C333.022 50 358.457 60.5357 377.211 79.2893C395.964 98.043 406.5 123.478 406.5 150C406.5 176.522 395.964 201.957 377.211 220.711C358.457 239.464 333.022 250 306.5 250C279.978 250 254.543 239.464 235.789 220.711C217.036 201.957 206.5 176.522 206.5 150C206.5 123.478 217.036 98.043 235.789 79.2893C254.543 60.5357 279.978 50 306.5 50ZM306.5 75C286.609 75 267.532 82.9018 253.467 96.967C239.402 111.032 231.5 130.109 231.5 150C231.5 169.891 239.402 188.968 253.467 203.033C267.532 217.098 286.609 225 306.5 225C326.391 225 345.468 217.098 359.533 203.033C373.598 188.968 381.5 169.891 381.5 150C381.5 130.109 373.598 111.032 359.533 96.967C345.468 82.9018 326.391 75 306.5 75ZM294 100H312.75V147.25L341.875 176.375L328.625 189.625L294 155V100ZM144 225C140.685 225 137.505 223.683 135.161 221.339C132.817 218.995 131.5 215.815 131.5 212.5C131.5 209.185 132.817 206.005 135.161 203.661C137.505 201.317 140.685 200 144 200H191.875C195.75 208.875 200.75 217.25 206.5 225H144ZM156.5 162.5C153.185 162.5 150.005 161.183 147.661 158.839C145.317 156.495 144 153.315 144 150C144 146.685 145.317 143.505 147.661 141.161C150.005 138.817 153.185 137.5 156.5 137.5H182.125L181.5 150L182.125 162.5H156.5ZM169 100C165.685 100 162.505 98.683 160.161 96.3388C157.817 93.9946 156.5 90.8152 156.5 87.5C156.5 84.1848 157.817 81.0054 160.161 78.6612C162.505 76.317 165.685 75 169 75H206.5C200.75 82.75 195.75 91.125 191.875 100H169Z" fill="#0E1428"/>
<path d="M510.325 587.675L428 505.35V395H478V484.65L545.675 552.325L510.325 587.675ZM453 295C399.957 295 349.086 316.071 311.579 353.579C274.071 391.086 253 441.957 253 495C253 548.043 274.071 598.914 311.579 636.421C349.086 673.929 399.957 695 453 695C506.043 695 556.914 673.929 594.421 636.421C631.929 598.914 653 548.043 653 495C653 441.957 631.929 391.086 594.421 353.579C556.914 316.071 506.043 295 453 295V295ZM453 645C433.302 645 413.796 641.12 395.597 633.582C377.399 626.044 360.863 614.995 346.934 601.066C333.005 587.137 321.956 570.601 314.418 552.403C306.88 534.204 303 514.698 303 495C303 475.302 306.88 455.796 314.418 437.597C321.956 419.399 333.005 402.863 346.934 388.934C360.863 375.005 377.399 363.956 395.597 356.418C413.796 348.88 433.302 345 453 345C492.782 345 530.936 360.804 559.066 388.934C587.196 417.064 603 455.218 603 495C603 534.782 587.196 572.936 559.066 601.066C530.936 629.196 492.782 645 453 645Z" fill="#0E1428"/>
</svg>
