<svg width="512" height="343" viewBox="0 0 512 343" fill="none" xmlns="http://www.w3.org/2000/svg">
<path d="M87.04 181.915V199.995H57.28V293.595H34.88V199.995H5.12V181.915H87.04ZM114.744 194.395C110.797 194.395 107.49 193.168 104.824 190.715C102.264 188.155 100.984 185.008 100.984 181.275C100.984 177.541 102.264 174.448 104.824 171.995C107.49 169.435 110.797 168.155 114.744 168.155C118.69 168.155 121.944 169.435 124.504 171.995C127.17 174.448 128.504 177.541 128.504 181.275C128.504 185.008 127.17 188.155 124.504 190.715C121.944 193.168 118.69 194.395 114.744 194.395ZM125.784 204.955V293.595H103.384V204.955H125.784ZM257.995 203.675C268.875 203.675 277.622 207.035 284.235 213.755C290.955 220.368 294.315 229.648 294.315 241.595V293.595H271.915V244.635C271.915 237.701 270.155 232.421 266.635 228.795C263.115 225.061 258.315 223.195 252.235 223.195C246.155 223.195 241.302 225.061 237.675 228.795C234.155 232.421 232.395 237.701 232.395 244.635V293.595H209.995V244.635C209.995 237.701 208.235 232.421 204.715 228.795C201.195 225.061 196.395 223.195 190.315 223.195C184.128 223.195 179.222 225.061 175.595 228.795C172.075 232.421 170.315 237.701 170.315 244.635V293.595H147.915V204.955H170.315V215.675C173.195 211.941 176.875 209.008 181.355 206.875C185.942 204.741 190.955 203.675 196.395 203.675C203.328 203.675 209.515 205.168 214.955 208.155C220.395 211.035 224.608 215.195 227.595 220.635C230.475 215.515 234.635 211.408 240.075 208.315C245.622 205.221 251.595 203.675 257.995 203.675ZM397.971 247.355C397.971 250.555 397.758 253.435 397.331 255.995H332.531C333.065 262.395 335.305 267.408 339.251 271.035C343.198 274.661 348.051 276.475 353.811 276.475C362.131 276.475 368.051 272.901 371.571 265.755H395.731C393.171 274.288 388.265 281.328 381.011 286.875C373.758 292.315 364.851 295.035 354.291 295.035C345.758 295.035 338.078 293.168 331.251 289.435C324.531 285.595 319.251 280.208 315.411 273.275C311.678 266.341 309.811 258.341 309.811 249.275C309.811 240.101 311.678 232.048 315.411 225.115C319.145 218.181 324.371 212.848 331.091 209.115C337.811 205.381 345.545 203.515 354.291 203.515C362.718 203.515 370.238 205.328 376.851 208.955C383.571 212.581 388.745 217.755 392.371 224.475C396.105 231.088 397.971 238.715 397.971 247.355ZM374.771 240.955C374.665 235.195 372.585 230.608 368.531 227.195C364.478 223.675 359.518 221.915 353.651 221.915C348.105 221.915 343.411 223.621 339.571 227.035C335.838 230.341 333.545 234.981 332.691 240.955H374.771ZM436.721 218.715C439.601 214.021 443.335 210.341 447.921 207.675C452.615 205.008 457.948 203.675 463.921 203.675V227.195H458.001C450.961 227.195 445.628 228.848 442.001 232.155C438.481 235.461 436.721 241.221 436.721 249.435V293.595H414.321V204.955H436.721V218.715Z" fill="#0E1428"/>
<path d="M87.04 181.915H91.04V177.915H87.04V181.915ZM87.04 199.995V203.995H91.04V199.995H87.04ZM57.28 199.995V195.995H53.28V199.995H57.28ZM57.28 293.595V297.595H61.28V293.595H57.28ZM34.88 293.595H30.88V297.595H34.88V293.595ZM34.88 199.995H38.88V195.995H34.88V199.995ZM5.12 199.995H1.12V203.995H5.12V199.995ZM5.12 181.915V177.915H1.12V181.915H5.12ZM83.04 181.915V199.995H91.04V181.915H83.04ZM87.04 195.995H57.28V203.995H87.04V195.995ZM53.28 199.995V293.595H61.28V199.995H53.28ZM57.28 289.595H34.88V297.595H57.28V289.595ZM38.88 293.595V199.995H30.88V293.595H38.88ZM34.88 195.995H5.12V203.995H34.88V195.995ZM9.12 199.995V181.915H1.12V199.995H9.12ZM5.12 185.915H87.04V177.915H5.12V185.915ZM104.824 190.715L101.995 193.543L102.054 193.602L102.116 193.658L104.824 190.715ZM104.824 171.995L107.591 174.883L107.594 174.88L104.824 171.995ZM124.504 171.995L121.675 174.823L121.734 174.882L121.796 174.938L124.504 171.995ZM124.504 190.715L127.271 193.603L127.274 193.6L124.504 190.715ZM125.784 204.955H129.784V200.955H125.784V204.955ZM125.784 293.595V297.595H129.784V293.595H125.784ZM103.384 293.595H99.3838V297.595H103.384V293.595ZM103.384 204.955V200.955H99.3838V204.955H103.384ZM114.744 190.395C111.703 190.395 109.392 189.482 107.532 187.771L102.116 193.658C105.589 196.854 109.891 198.395 114.744 198.395V190.395ZM107.652 187.886C105.868 186.102 104.984 183.984 104.984 181.275H96.9838C96.9838 186.032 98.6594 190.207 101.995 193.543L107.652 187.886ZM104.984 181.275C104.984 178.567 105.864 176.538 107.591 174.883L102.056 169.107C98.6634 172.358 96.9838 176.515 96.9838 181.275H104.984ZM107.594 174.88C109.462 173.087 111.753 172.155 114.744 172.155V164.155C109.841 164.155 105.519 165.782 102.054 169.109L107.594 174.88ZM114.744 172.155C117.735 172.155 119.937 173.084 121.675 174.823L127.332 169.166C123.951 165.785 119.646 164.155 114.744 164.155V172.155ZM121.796 174.938C123.611 176.609 124.504 178.622 124.504 181.275H132.504C132.504 176.461 130.73 172.287 127.212 169.051L121.796 174.938ZM124.504 181.275C124.504 183.931 123.606 186.032 121.734 187.829L127.274 193.6C130.735 190.277 132.504 186.085 132.504 181.275H124.504ZM121.736 187.827C120.008 189.483 117.786 190.395 114.744 190.395V198.395C119.595 198.395 123.88 196.853 127.271 193.603L121.736 187.827ZM121.784 204.955V293.595H129.784V204.955H121.784ZM125.784 289.595H103.384V297.595H125.784V289.595ZM107.384 293.595V204.955H99.3838V293.595H107.384ZM103.384 208.955H125.784V200.955H103.384V208.955ZM284.235 213.755L281.384 216.56L281.406 216.583L281.429 216.606L284.235 213.755ZM294.315 293.595V297.595H298.315V293.595H294.315ZM271.915 293.595H267.915V297.595H271.915V293.595ZM266.635 228.795L263.725 231.539L263.745 231.56L263.765 231.58L266.635 228.795ZM237.675 228.795L234.806 226.007L234.805 226.009L237.675 228.795ZM232.395 293.595V297.595H236.395V293.595H232.395ZM209.995 293.595H205.995V297.595H209.995V293.595ZM204.715 228.795L201.805 231.539L201.825 231.56L201.845 231.58L204.715 228.795ZM175.595 228.795L172.726 226.007L172.725 226.009L175.595 228.795ZM170.315 293.595V297.595H174.315V293.595H170.315ZM147.915 293.595H143.915V297.595H147.915V293.595ZM147.915 204.955V200.955H143.915V204.955H147.915ZM170.315 204.955H174.315V200.955H170.315V204.955ZM170.315 215.675H166.315V227.409L173.482 218.118L170.315 215.675ZM181.355 206.875L179.668 203.248L179.652 203.255L179.635 203.263L181.355 206.875ZM214.955 208.155L213.03 211.661L213.057 211.676L213.083 211.69L214.955 208.155ZM227.595 220.635L224.089 222.56L227.553 228.869L231.081 222.596L227.595 220.635ZM240.075 208.315L238.127 204.821L238.112 204.829L238.098 204.837L240.075 208.315ZM257.995 207.675C267.982 207.675 275.64 210.723 281.384 216.56L287.086 210.949C279.604 203.346 269.768 199.675 257.995 199.675V207.675ZM281.429 216.606C287.194 222.279 290.315 230.418 290.315 241.595H298.315C298.315 228.878 294.716 218.457 287.041 210.904L281.429 216.606ZM290.315 241.595V293.595H298.315V241.595H290.315ZM294.315 289.595H271.915V297.595H294.315V289.595ZM275.915 293.595V244.635H267.915V293.595H275.915ZM275.915 244.635C275.915 237.055 273.984 230.623 269.505 226.009L263.765 231.58C266.326 234.219 267.915 238.348 267.915 244.635H275.915ZM269.545 226.051C265.13 221.368 259.196 219.195 252.235 219.195V227.195C257.434 227.195 261.1 228.755 263.725 231.539L269.545 226.051ZM252.235 219.195C245.271 219.195 239.313 221.368 234.806 226.007L240.544 231.582C243.291 228.755 247.039 227.195 252.235 227.195V219.195ZM234.805 226.009C230.326 230.623 228.395 237.055 228.395 244.635H236.395C236.395 238.348 237.984 234.219 240.545 231.58L234.805 226.009ZM228.395 244.635V293.595H236.395V244.635H228.395ZM232.395 289.595H209.995V297.595H232.395V289.595ZM213.995 293.595V244.635H205.995V293.595H213.995ZM213.995 244.635C213.995 237.055 212.064 230.623 207.585 226.009L201.845 231.58C204.406 234.219 205.995 238.348 205.995 244.635H213.995ZM207.625 226.051C203.21 221.368 197.276 219.195 190.315 219.195V227.195C195.514 227.195 199.18 228.755 201.805 231.539L207.625 226.051ZM190.315 219.195C183.267 219.195 177.246 221.354 172.726 226.007L178.464 231.582C181.197 228.768 184.989 227.195 190.315 227.195V219.195ZM172.725 226.009C168.246 230.623 166.315 237.055 166.315 244.635H174.315C174.315 238.348 175.904 234.219 178.465 231.58L172.725 226.009ZM166.315 244.635V293.595H174.315V244.635H166.315ZM170.315 289.595H147.915V297.595H170.315V289.595ZM151.915 293.595V204.955H143.915V293.595H151.915ZM147.915 208.955H170.315V200.955H147.915V208.955ZM166.315 204.955V215.675H174.315V204.955H166.315ZM173.482 218.118C175.958 214.908 179.132 212.364 183.075 210.486L179.635 203.263C174.618 205.652 170.432 208.974 167.148 213.231L173.482 218.118ZM183.042 210.501C187.061 208.632 191.493 207.675 196.395 207.675V199.675C190.417 199.675 184.822 200.85 179.668 203.248L183.042 210.501ZM196.395 207.675C202.736 207.675 208.247 209.035 213.03 211.661L216.88 204.648C210.783 201.301 203.921 199.675 196.395 199.675V207.675ZM213.083 211.69C217.827 214.201 221.475 217.798 224.089 222.56L231.101 218.71C227.742 212.591 222.963 207.868 216.827 204.619L213.083 211.69ZM231.081 222.596C233.582 218.15 237.201 214.55 242.052 211.792L238.098 204.837C232.069 208.265 227.368 212.879 224.109 218.674L231.081 222.596ZM242.023 211.808C246.97 209.05 252.271 207.675 257.995 207.675V199.675C250.919 199.675 244.274 201.393 238.127 204.821L242.023 211.808ZM397.331 255.995V259.995H400.72L401.277 256.652L397.331 255.995ZM332.531 255.995V251.995H328.184L328.545 256.327L332.531 255.995ZM339.251 271.035L336.545 273.98L336.545 273.98L339.251 271.035ZM371.571 265.755V261.755H369.083L367.983 263.987L371.571 265.755ZM395.731 265.755L399.563 266.904L401.107 261.755H395.731V265.755ZM381.011 286.875L383.411 290.075L383.426 290.063L383.441 290.052L381.011 286.875ZM331.251 289.435L329.267 292.908L329.299 292.926L329.332 292.944L331.251 289.435ZM315.411 273.275L311.889 275.171L311.901 275.192L311.912 275.213L315.411 273.275ZM315.411 225.115L311.889 223.218L311.889 223.218L315.411 225.115ZM331.091 209.115L333.034 212.611L333.034 212.611L331.091 209.115ZM376.851 208.955L374.928 212.462L374.94 212.468L374.952 212.475L376.851 208.955ZM392.371 224.475L388.851 226.374L388.869 226.408L388.888 226.441L392.371 224.475ZM374.771 240.955V244.955H378.846L378.771 240.881L374.771 240.955ZM368.531 227.195L365.909 230.215L365.931 230.235L365.955 230.254L368.531 227.195ZM339.571 227.035L342.223 230.029L342.229 230.024L339.571 227.035ZM332.691 240.955L328.731 240.389L328.079 244.955H332.691V240.955ZM393.971 247.355C393.971 250.383 393.769 253.038 393.386 255.337L401.277 256.652C401.747 253.832 401.971 250.726 401.971 247.355H393.971ZM397.331 251.995H332.531V259.995H397.331V251.995ZM328.545 256.327C329.144 263.518 331.717 269.544 336.545 273.98L341.958 268.089C338.892 265.272 336.985 261.271 336.517 255.662L328.545 256.327ZM336.545 273.98C341.288 278.338 347.13 280.475 353.811 280.475V272.475C348.972 272.475 345.108 270.984 341.958 268.089L336.545 273.98ZM353.811 280.475C358.551 280.475 362.858 279.452 366.558 277.219C370.269 274.98 373.114 271.675 375.16 267.522L367.983 263.987C366.508 266.981 364.634 269.036 362.424 270.37C360.204 271.71 357.391 272.475 353.811 272.475V280.475ZM371.571 269.755H395.731V261.755H371.571V269.755ZM391.9 264.605C389.588 272.311 385.184 278.648 378.581 283.697L383.441 290.052C391.346 284.007 396.754 276.265 399.563 266.904L391.9 264.605ZM378.611 283.675C372.16 288.513 364.134 291.035 354.291 291.035V299.035C365.569 299.035 375.356 296.116 383.411 290.075L378.611 283.675ZM354.291 291.035C346.362 291.035 339.353 289.306 333.171 285.925L329.332 292.944C336.803 297.03 345.154 299.035 354.291 299.035V291.035ZM333.236 285.962C327.168 282.494 322.405 277.645 318.91 271.337L311.912 275.213C316.098 282.77 321.895 288.695 329.267 292.908L333.236 285.962ZM318.933 271.378C315.558 265.111 313.811 257.78 313.811 249.275H305.811C305.811 258.902 307.798 267.572 311.889 275.171L318.933 271.378ZM313.811 249.275C313.811 240.654 315.562 233.272 318.933 227.011L311.889 223.218C307.794 230.824 305.811 239.549 305.811 249.275H313.811ZM318.933 227.011C322.313 220.734 326.999 215.964 333.034 212.611L329.149 205.618C321.743 209.732 315.976 215.629 311.889 223.218L318.933 227.011ZM333.034 212.611C339.082 209.251 346.129 207.515 354.291 207.515V199.515C344.96 199.515 336.541 201.511 329.149 205.618L333.034 212.611ZM354.291 207.515C362.126 207.515 368.971 209.195 374.928 212.462L378.775 205.447C371.505 201.461 363.31 199.515 354.291 199.515V207.515ZM374.952 212.475C380.985 215.731 385.595 220.341 388.851 226.374L395.891 222.575C391.894 215.168 386.158 209.432 378.751 205.434L374.952 212.475ZM388.888 226.441C392.238 232.376 393.971 239.307 393.971 247.355H401.971C401.971 238.122 399.971 229.8 395.855 222.508L388.888 226.441ZM378.771 240.881C378.645 234.08 376.127 228.362 371.108 224.135L365.955 230.254C369.042 232.854 370.685 236.309 370.772 241.029L378.771 240.881ZM371.154 224.174C366.303 219.962 360.385 217.915 353.651 217.915V225.915C358.651 225.915 362.652 227.387 365.909 230.215L371.154 224.174ZM353.651 217.915C347.21 217.915 341.547 219.927 336.914 224.045L342.229 230.024C345.276 227.316 349 225.915 353.651 225.915V217.915ZM336.919 224.04C332.334 228.101 329.69 233.682 328.731 240.389L336.651 241.52C337.4 236.281 339.341 232.582 342.223 230.029L336.919 224.04ZM332.691 244.955H374.771V236.955H332.691V244.955ZM436.721 218.715H432.721V232.881L440.131 220.807L436.721 218.715ZM447.921 207.675L445.945 204.197L445.928 204.207L445.911 204.217L447.921 207.675ZM463.921 203.675H467.921V199.675H463.921V203.675ZM463.921 227.195V231.195H467.921V227.195H463.921ZM442.001 232.155L439.306 229.199L439.284 229.219L439.263 229.239L442.001 232.155ZM436.721 293.595V297.595H440.721V293.595H436.721ZM414.321 293.595H410.321V297.595H414.321V293.595ZM414.321 204.955V200.955H410.321V204.955H414.321ZM436.721 204.955H440.721V200.955H436.721V204.955ZM440.131 220.807C442.678 216.655 445.939 213.454 449.932 211.133L445.911 204.217C440.73 207.229 436.524 211.387 433.312 216.623L440.131 220.807ZM449.897 211.152C453.926 208.863 458.565 207.675 463.921 207.675V199.675C457.331 199.675 451.303 201.152 445.945 204.197L449.897 211.152ZM459.921 203.675V227.195H467.921V203.675H459.921ZM463.921 223.195H458.001V231.195H463.921V223.195ZM458.001 223.195C450.394 223.195 443.935 224.978 439.306 229.199L444.696 235.11C447.321 232.718 451.529 231.195 458.001 231.195V223.195ZM439.263 229.239C434.526 233.688 432.721 240.849 432.721 249.435H440.721C440.721 241.594 442.436 237.234 444.74 235.07L439.263 229.239ZM432.721 249.435V293.595H440.721V249.435H432.721ZM436.721 289.595H414.321V297.595H436.721V289.595ZM418.321 293.595V204.955H410.321V293.595H418.321ZM414.321 208.955H436.721V200.955H414.321V208.955ZM432.721 204.955V218.715H440.721V204.955H432.721Z" fill="white"/>
<path d="M5.6 80C5.6 69.0133 8.05333 59.2 12.96 50.56C17.9733 41.8133 24.7467 35.04 33.28 30.24C41.92 25.3333 51.5733 22.88 62.24 22.88C74.72 22.88 85.6533 26.08 95.04 32.48C104.427 38.88 110.987 47.7333 114.72 59.04H88.96C86.4 53.7067 82.7733 49.7067 78.08 47.04C73.4933 44.3733 68.16 43.04 62.08 43.04C55.5733 43.04 49.76 44.5867 44.64 47.68C39.6267 50.6667 35.68 54.9333 32.8 60.48C30.0267 66.0267 28.64 72.5333 28.64 80C28.64 87.36 30.0267 93.8667 32.8 99.52C35.68 105.067 39.6267 109.387 44.64 112.48C49.76 115.467 55.5733 116.96 62.08 116.96C68.16 116.96 73.4933 115.627 78.08 112.96C82.7733 110.187 86.4 106.133 88.96 100.8H114.72C110.987 112.213 104.427 121.12 95.04 127.52C85.76 133.813 74.8267 136.96 62.24 136.96C51.5733 136.96 41.92 134.56 33.28 129.76C24.7467 124.853 17.9733 118.08 12.96 109.44C8.05333 100.8 5.6 90.9867 5.6 80ZM173.213 137.44C164.679 137.44 156.999 135.573 150.173 131.84C143.346 128 137.959 122.613 134.013 115.68C130.173 108.747 128.253 100.747 128.253 91.68C128.253 82.6133 130.226 74.6133 134.173 67.68C138.226 60.7467 143.719 55.4133 150.653 51.68C157.586 47.84 165.319 45.92 173.853 45.92C182.386 45.92 190.119 47.84 197.053 51.68C203.986 55.4133 209.426 60.7467 213.373 67.68C217.426 74.6133 219.453 82.6133 219.453 91.68C219.453 100.747 217.373 108.747 213.212 115.68C209.159 122.613 203.613 128 196.573 131.84C189.639 135.573 181.853 137.44 173.213 137.44ZM173.213 117.92C177.266 117.92 181.053 116.96 184.573 115.04C188.199 113.013 191.079 110.027 193.213 106.08C195.346 102.133 196.413 97.3333 196.413 91.68C196.413 83.2533 194.173 76.8 189.693 72.32C185.319 67.7333 179.933 65.44 173.533 65.44C167.133 65.44 161.746 67.7333 157.373 72.32C153.106 76.8 150.973 83.2533 150.973 91.68C150.973 100.107 153.053 106.613 157.213 111.2C161.479 115.68 166.813 117.92 173.213 117.92ZM319.564 47.36V136H297.004V124.8C294.124 128.64 290.337 131.68 285.644 133.92C281.057 136.053 276.044 137.12 270.604 137.12C263.67 137.12 257.537 135.68 252.204 132.8C246.87 129.813 242.657 125.493 239.564 119.84C236.577 114.08 235.084 107.253 235.084 99.36V47.36H257.484V96.16C257.484 103.2 259.244 108.64 262.764 112.48C266.284 116.213 271.084 118.08 277.164 118.08C283.35 118.08 288.204 116.213 291.724 112.48C295.244 108.64 297.004 103.2 297.004 96.16V47.36H319.564ZM390.785 46.08C401.345 46.08 409.878 49.44 416.385 56.16C422.892 62.7733 426.145 72.0533 426.145 84V136H403.745V87.04C403.745 80 401.985 74.6133 398.465 70.88C394.945 67.04 390.145 65.12 384.065 65.12C377.878 65.12 372.972 67.04 369.345 70.88C365.825 74.6133 364.065 80 364.065 87.04V136H341.665V47.36H364.065V58.4C367.052 54.56 370.838 51.5733 375.425 49.44C380.118 47.2 385.238 46.08 390.785 46.08ZM473.526 65.76V108.64C473.526 111.627 474.22 113.813 475.606 115.2C477.1 116.48 479.553 117.12 482.966 117.12H493.366V136H479.286C460.406 136 450.966 126.827 450.966 108.48V65.76H440.406V47.36H450.966V25.44H473.526V47.36H493.366V65.76H473.526Z" fill="#34CB84"/>
</svg>
