<svg width="512" height="512" viewBox="0 0 512 512" fill="none" xmlns="http://www.w3.org/2000/svg">
<path d="M0 53C0 23.7289 23.7289 0 53 0H459C488.271 0 512 23.7289 512 53V459C512 488.271 488.271 512 459 512H53C23.7289 512 0 488.271 0 459V53Z" fill="#34CB84"/>
<path d="M313.325 348.675L231 266.35V156H281V245.65L348.675 313.325L313.325 348.675ZM256 56C202.957 56 152.086 77.0714 114.579 114.579C77.0714 152.086 56 202.957 56 256C56 309.043 77.0714 359.914 114.579 397.421C152.086 434.929 202.957 456 256 456C309.043 456 359.914 434.929 397.421 397.421C434.929 359.914 456 309.043 456 256C456 202.957 434.929 152.086 397.421 114.579C359.914 77.0714 309.043 56 256 56V56ZM256 406C236.302 406 216.796 402.12 198.597 394.582C180.399 387.044 163.863 375.995 149.934 362.066C136.005 348.137 124.956 331.601 117.418 313.403C109.88 295.204 106 275.698 106 256C106 236.302 109.88 216.796 117.418 198.597C124.956 180.399 136.005 163.863 149.934 149.934C163.863 136.005 180.399 124.956 198.597 117.418C216.796 109.88 236.302 106 256 106C295.782 106 333.936 121.804 362.066 149.934C390.196 178.064 406 216.218 406 256C406 295.782 390.196 333.936 362.066 362.066C333.936 390.196 295.782 406 256 406Z" fill="#0E1428"/>
</svg>
