<svg width="93" height="53" viewBox="0 0 93 53" fill="none" xmlns="http://www.w3.org/2000/svg">
<path d="M1.05 11.5C1.05 9.44 1.51 7.6 2.43 5.98C3.37 4.34 4.64 3.07 6.24 2.17C7.86 1.25 9.67 0.789999 11.67 0.789999C14.01 0.789999 16.06 1.39 17.82 2.59C19.58 3.79 20.81 5.45 21.51 7.57H16.68C16.2 6.57 15.52 5.82 14.64 5.32C13.78 4.82 12.78 4.57 11.64 4.57C10.42 4.57 9.33 4.86 8.37 5.44C7.43 6 6.69 6.8 6.15 7.84C5.63 8.88 5.37 10.1 5.37 11.5C5.37 12.88 5.63 14.1 6.15 15.16C6.69 16.2 7.43 17.01 8.37 17.59C9.33 18.15 10.42 18.43 11.64 18.43C12.78 18.43 13.78 18.18 14.64 17.68C15.52 17.16 16.2 16.4 16.68 15.4H21.51C20.81 17.54 19.58 19.21 17.82 20.41C16.08 21.59 14.03 22.18 11.67 22.18C9.67 22.18 7.86 21.73 6.24 20.83C4.64 19.91 3.37 18.64 2.43 17.02C1.51 15.4 1.05 13.56 1.05 11.5ZM32.4773 22.27C30.8773 22.27 29.4373 21.92 28.1573 21.22C26.8773 20.5 25.8673 19.49 25.1273 18.19C24.4073 16.89 24.0473 15.39 24.0473 13.69C24.0473 11.99 24.4173 10.49 25.1573 9.19C25.9173 7.89 26.9473 6.89 28.2473 6.19C29.5473 5.47 30.9973 5.11 32.5973 5.11C34.1973 5.11 35.6473 5.47 36.9473 6.19C38.2473 6.89 39.2673 7.89 40.0073 9.19C40.7673 10.49 41.1473 11.99 41.1473 13.69C41.1473 15.39 40.7573 16.89 39.9773 18.19C39.2173 19.49 38.1773 20.5 36.8573 21.22C35.5573 21.92 34.0973 22.27 32.4773 22.27ZM32.4773 18.61C33.2373 18.61 33.9473 18.43 34.6073 18.07C35.2873 17.69 35.8273 17.13 36.2273 16.39C36.6273 15.65 36.8273 14.75 36.8273 13.69C36.8273 12.11 36.4073 10.9 35.5673 10.06C34.7473 9.2 33.7373 8.77 32.5373 8.77C31.3373 8.77 30.3273 9.2 29.5073 10.06C28.7073 10.9 28.3073 12.11 28.3073 13.69C28.3073 15.27 28.6973 16.49 29.4773 17.35C30.2773 18.19 31.2773 18.61 32.4773 18.61ZM59.9182 5.38V22H55.6882V19.9C55.1482 20.62 54.4382 21.19 53.5582 21.61C52.6982 22.01 51.7582 22.21 50.7382 22.21C49.4382 22.21 48.2882 21.94 47.2882 21.4C46.2882 20.84 45.4982 20.03 44.9182 18.97C44.3582 17.89 44.0782 16.61 44.0782 15.13V5.38H48.2782V14.53C48.2782 15.85 48.6082 16.87 49.2682 17.59C49.9282 18.29 50.8282 18.64 51.9682 18.64C53.1282 18.64 54.0382 18.29 54.6982 17.59C55.3582 16.87 55.6882 15.85 55.6882 14.53V5.38H59.9182ZM73.2722 5.14C75.2522 5.14 76.8522 5.77 78.0722 7.03C79.2922 8.27 79.9022 10.01 79.9022 12.25V22H75.7022V12.82C75.7022 11.5 75.3722 10.49 74.7122 9.79C74.0522 9.07 73.1522 8.71 72.0122 8.71C70.8522 8.71 69.9322 9.07 69.2522 9.79C68.5922 10.49 68.2622 11.5 68.2622 12.82V22H64.0622V5.38H68.2622V7.45C68.8222 6.73 69.5322 6.17 70.3922 5.77C71.2722 5.35 72.2322 5.14 73.2722 5.14ZM88.7862 8.83V16.87C88.7862 17.43 88.9162 17.84 89.1762 18.1C89.4562 18.34 89.9162 18.46 90.5562 18.46H92.5062V22H89.8662C86.3262 22 84.5562 20.28 84.5562 16.84V8.83H82.5762V5.38H84.5562V1.27H88.7862V5.38H92.5062V8.83H88.7862Z" fill="#0E1428"/>
<path d="M16.32 31.06V34.45H10.74V52H6.54V34.45H0.96V31.06H16.32ZM21.5145 33.4C20.7745 33.4 20.1545 33.17 19.6545 32.71C19.1745 32.23 18.9345 31.64 18.9345 30.94C18.9345 30.24 19.1745 29.66 19.6545 29.2C20.1545 28.72 20.7745 28.48 21.5145 28.48C22.2545 28.48 22.8645 28.72 23.3445 29.2C23.8445 29.66 24.0945 30.24 24.0945 30.94C24.0945 31.64 23.8445 32.23 23.3445 32.71C22.8645 33.17 22.2545 33.4 21.5145 33.4ZM23.5845 35.38V52H19.3845V35.38H23.5845ZM48.3741 35.14C50.4141 35.14 52.0541 35.77 53.2941 37.03C54.5541 38.27 55.1841 40.01 55.1841 42.25V52H50.9841V42.82C50.9841 41.52 50.6541 40.53 49.9941 39.85C49.3341 39.15 48.4341 38.8 47.2941 38.8C46.1541 38.8 45.2441 39.15 44.5641 39.85C43.9041 40.53 43.5741 41.52 43.5741 42.82V52H39.3741V42.82C39.3741 41.52 39.0441 40.53 38.3841 39.85C37.7241 39.15 36.8241 38.8 35.6841 38.8C34.5241 38.8 33.6041 39.15 32.9241 39.85C32.2641 40.53 31.9341 41.52 31.9341 42.82V52H27.7341V35.38H31.9341V37.39C32.4741 36.69 33.1641 36.14 34.0041 35.74C34.8641 35.34 35.8041 35.14 36.8241 35.14C38.1241 35.14 39.2841 35.42 40.3041 35.98C41.3241 36.52 42.1141 37.3 42.6741 38.32C43.2141 37.36 43.9941 36.59 45.0141 36.01C46.0541 35.43 47.1741 35.14 48.3741 35.14ZM74.6196 43.33C74.6196 43.93 74.5796 44.47 74.4996 44.95H62.3496C62.4496 46.15 62.8696 47.09 63.6096 47.77C64.3496 48.45 65.2596 48.79 66.3396 48.79C67.8996 48.79 69.0096 48.12 69.6696 46.78H74.1996C73.7196 48.38 72.7996 49.7 71.4396 50.74C70.0796 51.76 68.4096 52.27 66.4296 52.27C64.8296 52.27 63.3896 51.92 62.1096 51.22C60.8496 50.5 59.8596 49.49 59.1396 48.19C58.4396 46.89 58.0896 45.39 58.0896 43.69C58.0896 41.97 58.4396 40.46 59.1396 39.16C59.8396 37.86 60.8196 36.86 62.0796 36.16C63.3396 35.46 64.7896 35.11 66.4296 35.11C68.0096 35.11 69.4196 35.45 70.6596 36.13C71.9196 36.81 72.8896 37.78 73.5696 39.04C74.2696 40.28 74.6196 41.71 74.6196 43.33ZM70.2696 42.13C70.2496 41.05 69.8596 40.19 69.0996 39.55C68.3396 38.89 67.4096 38.56 66.3096 38.56C65.2696 38.56 64.3896 38.88 63.6696 39.52C62.9696 40.14 62.5396 41.01 62.3796 42.13H70.2696ZM81.8852 37.96C82.4252 37.08 83.1252 36.39 83.9852 35.89C84.8652 35.39 85.8652 35.14 86.9852 35.14V39.55H85.8752C84.5552 39.55 83.5552 39.86 82.8752 40.48C82.2152 41.1 81.8852 42.18 81.8852 43.72V52H77.6852V35.38H81.8852V37.96Z" fill="#FFFDFD"/>
</svg>
