<svg width="512" height="343" viewBox="0 0 512 343" fill="none" xmlns="http://www.w3.org/2000/svg">
<path d="M87.04 181.915V199.995H57.28V293.595H34.88V199.995H5.12V181.915H87.04ZM114.744 194.395C110.797 194.395 107.49 193.168 104.824 190.715C102.264 188.155 100.984 185.008 100.984 181.275C100.984 177.541 102.264 174.448 104.824 171.995C107.49 169.435 110.797 168.155 114.744 168.155C118.69 168.155 121.944 169.435 124.504 171.995C127.17 174.448 128.504 177.541 128.504 181.275C128.504 185.008 127.17 188.155 124.504 190.715C121.944 193.168 118.69 194.395 114.744 194.395ZM125.784 204.955V293.595H103.384V204.955H125.784ZM257.995 203.675C268.875 203.675 277.622 207.035 284.235 213.755C290.955 220.368 294.315 229.648 294.315 241.595V293.595H271.915V244.635C271.915 237.701 270.155 232.421 266.635 228.795C263.115 225.061 258.315 223.195 252.235 223.195C246.155 223.195 241.302 225.061 237.675 228.795C234.155 232.421 232.395 237.701 232.395 244.635V293.595H209.995V244.635C209.995 237.701 208.235 232.421 204.715 228.795C201.195 225.061 196.395 223.195 190.315 223.195C184.128 223.195 179.222 225.061 175.595 228.795C172.075 232.421 170.315 237.701 170.315 244.635V293.595H147.915V204.955H170.315V215.675C173.195 211.941 176.875 209.008 181.355 206.875C185.942 204.741 190.955 203.675 196.395 203.675C203.328 203.675 209.515 205.168 214.955 208.155C220.395 211.035 224.608 215.195 227.595 220.635C230.475 215.515 234.635 211.408 240.075 208.315C245.622 205.221 251.595 203.675 257.995 203.675ZM397.971 247.355C397.971 250.555 397.758 253.435 397.331 255.995H332.531C333.065 262.395 335.305 267.408 339.251 271.035C343.198 274.661 348.051 276.475 353.811 276.475C362.131 276.475 368.051 272.901 371.571 265.755H395.731C393.171 274.288 388.265 281.328 381.011 286.875C373.758 292.315 364.851 295.035 354.291 295.035C345.758 295.035 338.078 293.168 331.251 289.435C324.531 285.595 319.251 280.208 315.411 273.275C311.678 266.341 309.811 258.341 309.811 249.275C309.811 240.101 311.678 232.048 315.411 225.115C319.145 218.181 324.371 212.848 331.091 209.115C337.811 205.381 345.545 203.515 354.291 203.515C362.718 203.515 370.238 205.328 376.851 208.955C383.571 212.581 388.745 217.755 392.371 224.475C396.105 231.088 397.971 238.715 397.971 247.355ZM374.771 240.955C374.665 235.195 372.585 230.608 368.531 227.195C364.478 223.675 359.518 221.915 353.651 221.915C348.105 221.915 343.411 223.621 339.571 227.035C335.838 230.341 333.545 234.981 332.691 240.955H374.771ZM436.721 218.715C439.601 214.021 443.335 210.341 447.921 207.675C452.615 205.008 457.948 203.675 463.921 203.675V227.195H458.001C450.961 227.195 445.628 228.848 442.001 232.155C438.481 235.461 436.721 241.221 436.721 249.435V293.595H414.321V204.955H436.721V218.715Z" fill="#0E1428"/>
<path d="M87.04 181.915H88.04V180.915H87.04V181.915ZM87.04 199.995V200.995H88.04V199.995H87.04ZM57.28 199.995V198.995H56.28V199.995H57.28ZM57.28 293.595V294.595H58.28V293.595H57.28ZM34.88 293.595H33.88V294.595H34.88V293.595ZM34.88 199.995H35.88V198.995H34.88V199.995ZM5.12 199.995H4.12V200.995H5.12V199.995ZM5.12 181.915V180.915H4.12V181.915H5.12ZM86.04 181.915V199.995H88.04V181.915H86.04ZM87.04 198.995H57.28V200.995H87.04V198.995ZM56.28 199.995V293.595H58.28V199.995H56.28ZM57.28 292.595H34.88V294.595H57.28V292.595ZM35.88 293.595V199.995H33.88V293.595H35.88ZM34.88 198.995H5.12V200.995H34.88V198.995ZM6.12 199.995V181.915H4.12V199.995H6.12ZM5.12 182.915H87.04V180.915H5.12V182.915ZM104.824 190.715L104.117 191.422L104.131 191.436L104.147 191.451L104.824 190.715ZM104.824 171.995L105.516 172.717L105.516 172.716L104.824 171.995ZM124.504 171.995L123.797 172.702L123.811 172.716L123.827 172.731L124.504 171.995ZM124.504 190.715L125.196 191.437L125.196 191.436L124.504 190.715ZM125.784 204.955H126.784V203.955H125.784V204.955ZM125.784 293.595V294.595H126.784V293.595H125.784ZM103.384 293.595H102.384V294.595H103.384V293.595ZM103.384 204.955V203.955H102.384V204.955H103.384ZM114.744 193.395C111.024 193.395 107.966 192.246 105.501 189.979L104.147 191.451C107.015 194.089 110.571 195.395 114.744 195.395V193.395ZM105.531 190.007C103.165 187.641 101.984 184.752 101.984 181.275H99.9838C99.9838 185.264 101.363 188.668 104.117 191.422L105.531 190.007ZM101.984 181.275C101.984 177.798 103.164 174.97 105.516 172.717L104.132 171.273C101.364 173.925 99.9838 177.285 99.9838 181.275H101.984ZM105.516 172.716C107.983 170.348 111.036 169.155 114.744 169.155V167.155C110.558 167.155 106.998 168.522 104.131 171.273L105.516 172.716ZM114.744 169.155C118.452 169.155 121.442 170.347 123.797 172.702L125.211 171.287C122.445 168.522 118.929 167.155 114.744 167.155V169.155ZM123.827 172.731C126.281 174.988 127.504 177.811 127.504 181.275H129.504C129.504 177.271 128.06 173.908 125.181 171.259L123.827 172.731ZM127.504 181.275C127.504 184.739 126.279 187.624 123.811 189.993L125.196 191.436C128.062 188.685 129.504 185.277 129.504 181.275H127.504ZM123.812 189.993C121.46 192.247 118.464 193.395 114.744 193.395V195.395C118.917 195.395 122.428 194.089 125.196 191.437L123.812 189.993ZM124.784 204.955V293.595H126.784V204.955H124.784ZM125.784 292.595H103.384V294.595H125.784V292.595ZM104.384 293.595V204.955H102.384V293.595H104.384ZM103.384 205.955H125.784V203.955H103.384V205.955ZM284.235 213.755L283.522 214.456L283.528 214.462L283.534 214.467L284.235 213.755ZM294.315 293.595V294.595H295.315V293.595H294.315ZM271.915 293.595H270.915V294.595H271.915V293.595ZM266.635 228.795L265.907 229.481L265.912 229.486L265.917 229.491L266.635 228.795ZM237.675 228.795L236.958 228.098L236.957 228.098L237.675 228.795ZM232.395 293.595V294.595H233.395V293.595H232.395ZM209.995 293.595H208.995V294.595H209.995V293.595ZM204.715 228.795L203.987 229.481L203.992 229.486L203.997 229.491L204.715 228.795ZM175.595 228.795L174.878 228.098L174.877 228.098L175.595 228.795ZM170.315 293.595V294.595H171.315V293.595H170.315ZM147.915 293.595H146.915V294.595H147.915V293.595ZM147.915 204.955V203.955H146.915V204.955H147.915ZM170.315 204.955H171.315V203.955H170.315V204.955ZM170.315 215.675H169.315V218.608L171.107 216.285L170.315 215.675ZM181.355 206.875L180.933 205.968L180.925 205.972L181.355 206.875ZM214.955 208.155L214.474 209.031L214.48 209.035L214.487 209.038L214.955 208.155ZM227.595 220.635L226.718 221.116L227.584 222.693L228.467 221.125L227.595 220.635ZM240.075 208.315L239.588 207.441L239.581 207.445L240.075 208.315ZM257.995 204.675C268.652 204.675 277.126 207.957 283.522 214.456L284.948 213.053C278.117 206.112 269.098 202.675 257.995 202.675V204.675ZM283.534 214.467C290.015 220.846 293.315 229.84 293.315 241.595H295.315C295.315 229.455 291.895 219.89 284.936 213.042L283.534 214.467ZM293.315 241.595V293.595H295.315V241.595H293.315ZM294.315 292.595H271.915V294.595H294.315V292.595ZM272.915 293.595V244.635H270.915V293.595H272.915ZM272.915 244.635C272.915 237.54 271.112 231.972 267.353 228.098L265.917 229.491C269.198 232.871 270.915 237.863 270.915 244.635H272.915ZM267.363 228.109C263.619 224.138 258.535 222.195 252.235 222.195V224.195C258.095 224.195 262.611 225.985 265.907 229.481L267.363 228.109ZM252.235 222.195C245.934 222.195 240.804 224.138 236.958 228.098L238.392 229.491C241.799 225.985 246.376 224.195 252.235 224.195V222.195ZM236.957 228.098C233.198 231.972 231.395 237.54 231.395 244.635H233.395C233.395 237.863 235.112 232.871 238.393 229.491L236.957 228.098ZM231.395 244.635V293.595H233.395V244.635H231.395ZM232.395 292.595H209.995V294.595H232.395V292.595ZM210.995 293.595V244.635H208.995V293.595H210.995ZM210.995 244.635C210.995 237.54 209.192 231.972 205.433 228.098L203.997 229.491C207.278 232.871 208.995 237.863 208.995 244.635H210.995ZM205.443 228.109C201.699 224.138 196.615 222.195 190.315 222.195V224.195C196.175 224.195 200.691 225.985 203.987 229.481L205.443 228.109ZM190.315 222.195C183.913 222.195 178.728 224.134 174.878 228.098L176.312 229.491C179.716 225.988 184.344 224.195 190.315 224.195V222.195ZM174.877 228.098C171.118 231.972 169.315 237.54 169.315 244.635H171.315C171.315 237.863 173.032 232.871 176.313 229.491L174.877 228.098ZM169.315 244.635V293.595H171.315V244.635H169.315ZM170.315 292.595H147.915V294.595H170.315V292.595ZM148.915 293.595V204.955H146.915V293.595H148.915ZM147.915 205.955H170.315V203.955H147.915V205.955ZM169.315 204.955V215.675H171.315V204.955H169.315ZM171.107 216.285C173.886 212.683 177.439 209.847 181.785 207.777L180.925 205.972C176.311 208.169 172.504 211.199 169.523 215.064L171.107 216.285ZM181.777 207.781C186.222 205.714 191.09 204.675 196.395 204.675V202.675C190.82 202.675 185.662 203.769 180.933 205.968L181.777 207.781ZM196.395 204.675C203.18 204.675 209.198 206.135 214.474 209.031L215.436 207.278C209.832 204.201 203.477 202.675 196.395 202.675V204.675ZM214.487 209.038C219.753 211.826 223.825 215.846 226.718 221.116L228.472 220.153C225.392 214.544 221.037 210.243 215.423 207.271L214.487 209.038ZM228.467 221.125C231.252 216.174 235.276 212.194 240.569 209.184L239.581 207.445C233.994 210.622 229.698 214.856 226.723 220.144L228.467 221.125ZM240.562 209.188C245.959 206.178 251.764 204.675 257.995 204.675V202.675C251.426 202.675 245.285 204.264 239.588 207.441L240.562 209.188ZM397.331 255.995V256.995H398.178L398.318 256.159L397.331 255.995ZM332.531 255.995V254.995H331.444L331.535 256.078L332.531 255.995ZM339.251 271.035L338.575 271.771L338.575 271.771L339.251 271.035ZM371.571 265.755V264.755H370.949L370.674 265.313L371.571 265.755ZM395.731 265.755L396.689 266.042L397.075 264.755H395.731V265.755ZM381.011 286.875L381.611 287.675L381.619 287.669L381.011 286.875ZM331.251 289.435L330.755 290.303L330.763 290.307L330.771 290.312L331.251 289.435ZM315.411 273.275L314.531 273.749L314.536 273.759L315.411 273.275ZM315.411 225.115L314.531 224.64L314.531 224.64L315.411 225.115ZM331.091 209.115L331.577 209.989L331.577 209.989L331.091 209.115ZM376.851 208.955L376.37 209.831L376.376 209.835L376.851 208.955ZM392.371 224.475L391.491 224.95L391.496 224.958L391.5 224.966L392.371 224.475ZM374.771 240.955V241.955H375.79L375.771 240.936L374.771 240.955ZM368.531 227.195L367.876 227.95L367.881 227.955L367.887 227.959L368.531 227.195ZM339.571 227.035L340.234 227.783L340.236 227.782L339.571 227.035ZM332.691 240.955L331.701 240.813L331.538 241.955H332.691V240.955ZM396.971 247.355C396.971 250.512 396.761 253.335 396.345 255.83L398.318 256.159C398.755 253.534 398.971 250.598 398.971 247.355H396.971ZM397.331 254.995H332.531V256.995H397.331V254.995ZM331.535 256.078C332.085 262.675 334.408 267.942 338.575 271.771L339.928 270.298C336.201 266.874 334.045 262.114 333.528 255.912L331.535 256.078ZM338.575 271.771C342.72 275.58 347.821 277.475 353.811 277.475V275.475C348.281 275.475 343.676 273.742 339.928 270.298L338.575 271.771ZM353.811 277.475C358.116 277.475 361.863 276.549 365.008 274.651C368.156 272.751 370.637 269.915 372.468 266.196L370.674 265.313C368.986 268.741 366.747 271.265 363.974 272.938C361.199 274.613 357.826 275.475 353.811 275.475V277.475ZM371.571 266.755H395.731V264.755H371.571V266.755ZM394.773 265.467C392.276 273.794 387.494 280.658 380.404 286.08L381.619 287.669C389.035 281.998 394.067 274.782 396.689 266.042L394.773 265.467ZM380.411 286.075C373.358 291.364 364.672 294.035 354.291 294.035V296.035C365.031 296.035 374.157 293.265 381.611 287.675L380.411 286.075ZM354.291 294.035C345.909 294.035 338.397 292.202 331.731 288.557L330.771 290.312C337.759 294.133 345.607 296.035 354.291 296.035V294.035ZM331.747 288.566C325.19 284.819 320.04 279.567 316.286 272.79L314.536 273.759C318.463 280.849 323.872 286.37 330.755 290.303L331.747 288.566ZM316.292 272.8C312.648 266.034 310.811 258.201 310.811 249.275H308.811C308.811 258.481 310.708 266.649 314.531 273.749L316.292 272.8ZM310.811 249.275C310.811 240.239 312.649 232.354 316.292 225.589L314.531 224.64C310.707 231.742 308.811 239.963 308.811 249.275H310.811ZM316.292 225.589C319.937 218.819 325.028 213.627 331.577 209.989L330.606 208.24C323.714 212.069 318.352 217.543 314.531 224.64L316.292 225.589ZM331.577 209.989C338.129 206.349 345.691 204.515 354.291 204.515V202.515C345.398 202.515 337.494 204.414 330.606 208.24L331.577 209.989ZM354.291 204.515C362.57 204.515 369.921 206.295 376.37 209.831L377.332 208.078C370.555 204.361 362.866 202.515 354.291 202.515V204.515ZM376.376 209.835C382.925 213.369 387.957 218.401 391.491 224.95L393.251 224C389.532 217.108 384.218 211.794 377.326 208.075L376.376 209.835ZM391.5 224.966C395.138 231.41 396.971 238.863 396.971 247.355H398.971C398.971 238.566 397.071 230.766 393.242 223.983L391.5 224.966ZM375.771 240.936C375.66 234.916 373.47 230.046 369.175 226.43L367.887 227.959C371.699 231.169 373.67 235.473 373.771 240.973L375.771 240.936ZM369.187 226.44C364.934 222.746 359.735 220.915 353.651 220.915V222.915C359.301 222.915 364.022 224.603 367.876 227.95L369.187 226.44ZM353.651 220.915C347.881 220.915 342.945 222.698 338.907 226.287L340.236 227.782C343.877 224.545 348.328 222.915 353.651 222.915V220.915ZM338.908 226.286C334.962 229.781 332.581 234.656 331.701 240.813L333.681 241.096C334.508 235.306 336.714 230.901 340.234 227.783L338.908 226.286ZM332.691 241.955H374.771V239.955H332.691V241.955ZM436.721 218.715H435.721V222.256L437.574 219.238L436.721 218.715ZM447.921 207.675L447.427 206.805L447.419 206.81L447.921 207.675ZM463.921 203.675H464.921V202.675H463.921V203.675ZM463.921 227.195V228.195H464.921V227.195H463.921ZM442.001 232.155L441.327 231.416L441.322 231.421L441.317 231.426L442.001 232.155ZM436.721 293.595V294.595H437.721V293.595H436.721ZM414.321 293.595H413.321V294.595H414.321V293.595ZM414.321 204.955V203.955H413.321V204.955H414.321ZM436.721 204.955H437.721V203.955H436.721V204.955ZM437.574 219.238C440.37 214.68 443.986 211.119 448.424 208.539L447.419 206.81C442.683 209.563 438.832 213.363 435.869 218.192L437.574 219.238ZM448.415 208.544C452.942 205.972 458.102 204.675 463.921 204.675V202.675C457.794 202.675 452.287 204.044 447.427 206.805L448.415 208.544ZM462.921 203.675V227.195H464.921V203.675H462.921ZM463.921 226.195H458.001V228.195H463.921V226.195ZM458.001 226.195C450.819 226.195 445.205 227.88 441.327 231.416L442.675 232.894C446.051 229.815 451.103 228.195 458.001 228.195V226.195ZM441.317 231.426C437.493 235.018 435.721 241.128 435.721 249.435H437.721C437.721 241.314 439.47 235.904 442.686 232.883L441.317 231.426ZM435.721 249.435V293.595H437.721V249.435H435.721ZM436.721 292.595H414.321V294.595H436.721V292.595ZM415.321 293.595V204.955H413.321V293.595H415.321ZM414.321 205.955H436.721V203.955H414.321V205.955ZM435.721 204.955V218.715H437.721V204.955H435.721Z" fill="white"/>
<path d="M5.6 80C5.6 69.0133 8.05333 59.2 12.96 50.56C17.9733 41.8133 24.7467 35.04 33.28 30.24C41.92 25.3333 51.5733 22.88 62.24 22.88C74.72 22.88 85.6533 26.08 95.04 32.48C104.427 38.88 110.987 47.7333 114.72 59.04H88.96C86.4 53.7067 82.7733 49.7067 78.08 47.04C73.4933 44.3733 68.16 43.04 62.08 43.04C55.5733 43.04 49.76 44.5867 44.64 47.68C39.6267 50.6667 35.68 54.9333 32.8 60.48C30.0267 66.0267 28.64 72.5333 28.64 80C28.64 87.36 30.0267 93.8667 32.8 99.52C35.68 105.067 39.6267 109.387 44.64 112.48C49.76 115.467 55.5733 116.96 62.08 116.96C68.16 116.96 73.4933 115.627 78.08 112.96C82.7733 110.187 86.4 106.133 88.96 100.8H114.72C110.987 112.213 104.427 121.12 95.04 127.52C85.76 133.813 74.8267 136.96 62.24 136.96C51.5733 136.96 41.92 134.56 33.28 129.76C24.7467 124.853 17.9733 118.08 12.96 109.44C8.05333 100.8 5.6 90.9867 5.6 80ZM173.213 137.44C164.679 137.44 156.999 135.573 150.173 131.84C143.346 128 137.959 122.613 134.013 115.68C130.173 108.747 128.253 100.747 128.253 91.68C128.253 82.6133 130.226 74.6133 134.173 67.68C138.226 60.7467 143.719 55.4133 150.653 51.68C157.586 47.84 165.319 45.92 173.853 45.92C182.386 45.92 190.119 47.84 197.053 51.68C203.986 55.4133 209.426 60.7467 213.373 67.68C217.426 74.6133 219.453 82.6133 219.453 91.68C219.453 100.747 217.373 108.747 213.212 115.68C209.159 122.613 203.613 128 196.573 131.84C189.639 135.573 181.853 137.44 173.213 137.44ZM173.213 117.92C177.266 117.92 181.053 116.96 184.573 115.04C188.199 113.013 191.079 110.027 193.213 106.08C195.346 102.133 196.413 97.3333 196.413 91.68C196.413 83.2533 194.173 76.8 189.693 72.32C185.319 67.7333 179.933 65.44 173.533 65.44C167.133 65.44 161.746 67.7333 157.373 72.32C153.106 76.8 150.973 83.2533 150.973 91.68C150.973 100.107 153.053 106.613 157.213 111.2C161.479 115.68 166.813 117.92 173.213 117.92ZM319.564 47.36V136H297.004V124.8C294.124 128.64 290.337 131.68 285.644 133.92C281.057 136.053 276.044 137.12 270.604 137.12C263.67 137.12 257.537 135.68 252.204 132.8C246.87 129.813 242.657 125.493 239.564 119.84C236.577 114.08 235.084 107.253 235.084 99.36V47.36H257.484V96.16C257.484 103.2 259.244 108.64 262.764 112.48C266.284 116.213 271.084 118.08 277.164 118.08C283.35 118.08 288.204 116.213 291.724 112.48C295.244 108.64 297.004 103.2 297.004 96.16V47.36H319.564ZM390.785 46.08C401.345 46.08 409.878 49.44 416.385 56.16C422.892 62.7733 426.145 72.0533 426.145 84V136H403.745V87.04C403.745 80 401.985 74.6133 398.465 70.88C394.945 67.04 390.145 65.12 384.065 65.12C377.878 65.12 372.972 67.04 369.345 70.88C365.825 74.6133 364.065 80 364.065 87.04V136H341.665V47.36H364.065V58.4C367.052 54.56 370.838 51.5733 375.425 49.44C380.118 47.2 385.238 46.08 390.785 46.08ZM473.526 65.76V108.64C473.526 111.627 474.22 113.813 475.606 115.2C477.1 116.48 479.553 117.12 482.966 117.12H493.366V136H479.286C460.406 136 450.966 126.827 450.966 108.48V65.76H440.406V47.36H450.966V25.44H473.526V47.36H493.366V65.76H473.526Z" fill="#34CB84"/>
</svg>
